<?xml version="1.0" encoding="UTF-8"?>
<svg id="Layer_1" data-name="Layer 1" xmlns="http://www.w3.org/2000/svg" viewBox="0 0 500 500">
  <defs>
    <style>
      .cls-1 {
        fill: none;
      }

      .cls-1, .cls-2, .cls-3, .cls-4, .cls-5, .cls-6, .cls-7 {
        stroke-width: 0px;
      }

      .cls-3 {
        fill: #196cac;
      }

      .cls-4 {
        fill: #231f20;
      }

      .cls-5 {
        fill: #d0e1f1;
      }

      .cls-6 {
        fill: #bccbd3;
      }

      .cls-7 {
        fill: #fff;
      }
    </style>
  </defs>
  <rect class="cls-6" x="74.08" y="114.93" width="355.74" height="269.35" rx="3" ry="3"/>
  <g>
    <path class="cls-7" d="m64.15,214.06h355.19c1.72,0,3.12,1.4,3.12,3.12v158.61H61.03v-158.61c0-1.72,1.4-3.12,3.12-3.12Z" transform="translate(483.49 589.85) rotate(180)"/>
    <path class="cls-2" d="m419.34,377.79H64.15c-2.82,0-5.12-2.29-5.12-5.12v-160.61h365.42v160.61c0,2.82-2.3,5.12-5.12,5.12ZM63.03,216.06v156.61c0,.62.5,1.12,1.12,1.12h355.19c.62,0,1.12-.5,1.12-1.12v-156.61H63.03Z"/>
  </g>
  <g>
    <path class="cls-6" d="m64.15,108.77h355.19c1.72,0,3.12,1.4,3.12,3.12v102.18H61.03v-102.18c0-1.72,1.4-3.12,3.12-3.12Z"/>
    <path class="cls-4" d="m424.46,216.06H59.03v-104.18c0-2.82,2.29-5.12,5.12-5.12h355.19c2.82,0,5.12,2.3,5.12,5.12v104.18Zm-361.42-4h357.42v-100.18c0-.62-.5-1.12-1.12-1.12H64.15c-.62,0-1.12.5-1.12,1.12v100.18Z"/>
  </g>
  <rect class="cls-7" x="74.08" y="167.37" width="335.7" height="35.4" rx="8.67" ry="8.67"/>
  <rect class="cls-3" x="76.88" y="127.56" width="159.77" height="25.71" rx="1.88" ry="1.88"/>
  <path class="cls-4" d="m234.77,155.27H78.76c-2.14,0-3.88-1.74-3.88-3.88v-21.96c0-2.14,1.74-3.88,3.88-3.88h156.01c2.14,0,3.88,1.74,3.88,3.88v21.96c0,2.14-1.74,3.88-3.88,3.88Zm-155.89-4h155.77v-21.71H78.88v21.71Z"/>
  <g>
    <path class="cls-2" d="m90.18,192.62l-1.89-13.38h3.23l.61,6.91c.03.34.07.68.1,1,.03.33.07.68.1,1.07.03.38.07.84.12,1.36h.1c.07-.52.12-.97.17-1.33.05-.37.1-.72.16-1.05.06-.33.13-.7.21-1.09l.98-4.9h3.04l.98,4.92c.07.31.13.65.2,1s.13.74.2,1.14c.06.4.13.84.2,1.31h.1c.05-.47.09-.91.12-1.31.03-.4.07-.78.1-1.13.03-.35.06-.68.07-.99l.61-6.91h3.18l-1.89,13.38h-4.04l-.93-5.19c-.1-.54-.17-.98-.22-1.34-.05-.35-.11-.73-.17-1.14h-.1c-.07.42-.12.81-.17,1.15-.05.34-.12.78-.22,1.32l-.96,5.19h-3.99Z"/>
    <path class="cls-2" d="m106.1,192.62l-1.89-13.38h3.23l.61,6.91c.03.34.07.68.1,1,.03.33.07.68.1,1.07.03.38.07.84.12,1.36h.1c.07-.52.12-.97.17-1.33.05-.37.1-.72.16-1.05.06-.33.13-.7.21-1.09l.98-4.9h3.04l.98,4.92c.07.31.13.65.2,1s.13.74.2,1.14c.06.4.13.84.2,1.31h.1c.05-.47.09-.91.12-1.31.03-.4.07-.78.1-1.13.03-.35.06-.68.07-.99l.61-6.91h3.18l-1.89,13.38h-4.04l-.93-5.19c-.1-.54-.17-.98-.22-1.34-.05-.35-.11-.73-.17-1.14h-.1c-.07.42-.12.81-.17,1.15-.05.34-.12.78-.22,1.32l-.96,5.19h-3.99Z"/>
    <path class="cls-2" d="m122.03,192.62l-1.89-13.38h3.23l.61,6.91c.03.34.07.68.1,1,.03.33.07.68.1,1.07.03.38.07.84.12,1.36h.1c.07-.52.12-.97.17-1.33.05-.37.1-.72.16-1.05.06-.33.13-.7.21-1.09l.98-4.9h3.04l.98,4.92c.07.31.13.65.2,1s.13.74.2,1.14c.06.4.13.84.2,1.31h.1c.05-.47.09-.91.12-1.31.03-.4.07-.78.1-1.13.03-.35.06-.68.07-.99l.61-6.91h3.18l-1.89,13.38h-4.04l-.93-5.19c-.1-.54-.17-.98-.22-1.34-.05-.35-.11-.73-.17-1.14h-.1c-.07.42-.12.81-.17,1.15-.05.34-.12.78-.22,1.32l-.96,5.19h-3.99Z"/>
    <path class="cls-2" d="m142.12,192.86c-.7,0-1.25-.19-1.64-.56-.39-.38-.59-.91-.59-1.59s.19-1.26.58-1.62.93-.54,1.65-.54,1.25.19,1.63.56c.38.38.58.91.58,1.59s-.2,1.18-.59,1.57c-.39.39-.93.59-1.62.59Z"/>
  </g>
  <rect class="cls-5" x="78.54" y="279.66" width="233.1" height="9.1" rx=".96" ry=".96"/>
  <rect class="cls-5" x="78.54" y="325.23" width="233.1" height="9.1" rx=".96" ry=".96"/>
  <rect class="cls-5" x="78.54" y="294.85" width="233.1" height="9.1" rx=".96" ry=".96"/>
  <rect class="cls-5" x="78.54" y="310.04" width="194.58" height="9.1" rx=".96" ry=".96"/>
  <rect class="cls-5" x="78.54" y="247.7" width="233.1" height="9.1" rx=".96" ry=".96"/>
  <rect class="cls-5" x="78.54" y="262.89" width="194.58" height="9.1" rx=".96" ry=".96"/>
  <rect class="cls-5" x="78.54" y="340.42" width="194.58" height="9.1" rx=".96" ry=".96"/>
  <rect class="cls-1" x=".31" y=".77" width="499.39" height="499.39"/>
</svg>