<?xml version="1.0" encoding="UTF-8"?>
<svg id="Layer_1" data-name="Layer 1" xmlns="http://www.w3.org/2000/svg" viewBox="0 0 500 500">
  <defs>
    <style>
      .cls-1 {
        fill: none;
      }

      .cls-1, .cls-2, .cls-3, .cls-4, .cls-5, .cls-6, .cls-7 {
        stroke-width: 0px;
      }

      .cls-3 {
        fill: #196cac;
      }

      .cls-4 {
        fill: #231f20;
      }

      .cls-5 {
        fill: #d0e1f1;
      }

      .cls-6 {
        fill: #bccbd3;
      }

      .cls-7 {
        fill: #fff;
      }
    </style>
  </defs>
  <rect class="cls-6" x="77.18" y="115.09" width="355.74" height="269.35" rx="3" ry="3"/>
  <g>
    <rect class="cls-7" x="63.56" y="106.11" width="361.42" height="269.84" rx="3.1" ry="3.1" transform="translate(488.53 482.06) rotate(180)"/>
    <path class="cls-2" d="m421.38,109.71v262.64H67.16V109.71h354.22m.5-3.6H66.66c-1.71,0-3.1,1.39-3.1,3.1v263.64c0,1.71,1.39,3.1,3.1,3.1h355.22c1.71,0,3.1-1.39,3.1-3.1V109.21c0-1.71-1.39-3.1-3.1-3.1h0Z"/>
  </g>
  <rect class="cls-5" x="81.64" y="198.57" width="220.49" height="9.1" rx=".96" ry=".96"/>
  <g>
    <rect class="cls-3" x="101.16" y="224.38" width="194.87" height="17.86" rx=".96" ry=".96"/>
    <path class="cls-4" d="m295.07,243.25H102.11c-1.08,0-1.96-.88-1.96-1.96v-15.95c0-1.08.88-1.96,1.96-1.96h192.96c1.08,0,1.96.88,1.96,1.96v15.95c0,1.08-.88,1.96-1.96,1.96Zm-.04-17.91l-192.92.04.04,15.91,192.87-.04v-15.91Z"/>
  </g>
  <rect class="cls-5" x="81.64" y="166.61" width="220.49" height="9.1" rx=".96" ry=".96"/>
  <g>
    <rect class="cls-3" x="81.64" y="129.38" width="272.27" height="26.35" rx=".96" ry=".96"/>
    <path class="cls-4" d="m352.95,157.23H82.6c-1.35,0-2.46-1.1-2.46-2.46v-24.43c0-1.35,1.1-2.46,2.46-2.46h270.35c1.35,0,2.46,1.1,2.46,2.46v24.43c0,1.35-1.1,2.46-2.46,2.46Zm-269.81-3h269.27v-23.35H83.14v23.35Z"/>
  </g>
  <rect class="cls-5" x="81.64" y="181.8" width="184.05" height="9.1" rx=".96" ry=".96"/>
  <rect class="cls-5" x="101.16" y="282.74" width="155.63" height="9.1" rx=".96" ry=".96"/>
  <rect class="cls-5" x="101.16" y="250.79" width="201.33" height="9.1" rx=".96" ry=".96"/>
  <rect class="cls-5" x="101.16" y="265.98" width="190.07" height="9.1" rx=".96" ry=".96"/>
  <g>
    <path class="cls-7" d="m89.27,149.01v-12.17h2.47v4.75h3.75v-4.75h2.47v12.17h-2.47v-5.28h-3.75v5.28h-2.47Z"/>
    <path class="cls-7" d="m103,141.97c0-.29,0-.58,0-.84,0-.27.01-.53.03-.79.01-.26.02-.52.03-.78-.17.11-.34.22-.49.32-.16.1-.3.18-.43.25l-1.16.63-1.11-1.99,3.58-1.91h2.01v12.17h-2.47v-7.04Zm-2.35,7.04v-1.72l2.37-.26h2.45l2.28.26v1.72h-7.11Z"/>
  </g>
  <g>
    <path class="cls-7" d="m106.68,239.1v-9.75h1.98v3.81h3v-3.81h1.98v9.75h-1.98v-4.23h-3v4.23h-1.98Z"/>
    <path class="cls-7" d="m115.04,239.1v-1.43l2.38-2.38c.38-.38.73-.74,1.05-1.08.32-.34.57-.67.76-1,.19-.33.29-.68.29-1.04,0-.39-.11-.69-.34-.91-.23-.21-.53-.32-.9-.32s-.71.08-1.05.25c-.34.16-.7.41-1.09.75l-1.12-1.33c.36-.31.69-.57,1.02-.77s.67-.36,1.05-.46c.38-.1.83-.16,1.35-.16.67,0,1.23.12,1.7.36.47.24.83.56,1.08.96.25.41.38.87.38,1.39,0,.58-.13,1.11-.38,1.59-.25.48-.59.93-1,1.36-.41.43-.87.86-1.36,1.3l-1.26,1.11v.14h4.26v1.69h-6.8Z"/>
  </g>
  <g>
    <rect class="cls-3" x="122.81" y="307.39" width="142.88" height="17.86" rx=".96" ry=".96"/>
    <path class="cls-4" d="m264.73,326.25H123.77c-1.08,0-1.96-.88-1.96-1.96v-15.95c0-1.08.88-1.96,1.96-1.96h140.97c1.08,0,1.96.88,1.96,1.96v15.95c0,1.08-.88,1.96-1.96,1.96Zm-.04-17.91l-140.92.04.04,15.91,140.88-.04v-15.91Z"/>
  </g>
  <rect class="cls-5" x="122.81" y="333.53" width="160.2" height="9.1" rx=".96" ry=".96"/>
  <rect class="cls-5" x="122.81" y="348.72" width="172.36" height="9.1" rx=".96" ry=".96"/>
  <g>
    <path class="cls-7" d="m128.34,322.1v-9.75h1.98v3.81h3v-3.81h1.98v9.75h-1.98v-4.23h-3v4.23h-1.98Z"/>
    <path class="cls-7" d="m139.65,322.24c-.45,0-.91-.05-1.39-.14-.48-.09-.94-.22-1.37-.4v-1.75c.4.19.84.34,1.31.45s.91.16,1.3.16c.57,0,1-.12,1.28-.36s.42-.59.42-1.04c0-.32-.07-.57-.22-.76s-.38-.32-.69-.4-.73-.12-1.25-.12h-.74v-1.58h.75c.46,0,.84-.05,1.13-.15.29-.1.51-.25.65-.44.14-.2.21-.43.21-.72,0-.3-.09-.56-.26-.76-.17-.21-.48-.31-.93-.31-.28,0-.6.05-.94.16s-.74.28-1.17.52l-.89-1.42c.46-.31.95-.55,1.49-.71.54-.16,1.08-.25,1.62-.25s1,.08,1.46.24c.45.16.81.41,1.09.75.28.34.42.79.42,1.35,0,.37-.07.73-.22,1.06-.15.33-.36.62-.64.85-.28.23-.63.4-1.04.51v.04c.51.07.93.21,1.25.4.32.2.56.45.71.76s.23.67.23,1.09c0,.69-.16,1.26-.48,1.7-.32.44-.75.76-1.29.97-.54.21-1.14.31-1.8.31Z"/>
  </g>
  <rect class="cls-1" x=".31" y=".07" width="499.39" height="499.39"/>
</svg>