<?xml version="1.0" encoding="UTF-8"?>
<svg id="Layer_1" data-name="Layer 1" xmlns="http://www.w3.org/2000/svg" viewBox="0 0 500 500">
  <defs>
    <style>
      .cls-1 {
        stroke-linecap: round;
        stroke-width: 6px;
      }

      .cls-1, .cls-2, .cls-3 {
        fill: none;
      }

      .cls-1, .cls-2, .cls-4, .cls-5, .cls-6 {
        stroke: #000;
        stroke-miterlimit: 10;
      }

      .cls-2, .cls-4, .cls-5, .cls-6 {
        stroke-width: 3px;
      }

      .cls-3, .cls-7, .cls-8, .cls-9, .cls-10, .cls-11 {
        stroke-width: 0px;
      }

      .cls-4, .cls-9 {
        fill: #d0e1f1;
      }

      .cls-5, .cls-8 {
        fill: #196cac;
      }

      .cls-6, .cls-11 {
        fill: #fff;
      }

      .cls-10 {
        fill: #bccbd3;
      }
    </style>
  </defs>
  <rect class="cls-3" x="-1.05" y="-.57" width="500.57" height="500.57"/>
  <rect class="cls-10" x="76.94" y="116.69" width="356.58" height="264.86" rx="3" ry="3"/>
  <g>
    <path class="cls-11" d="m66.39,106.82h356.08c.72,0,1.3.58,1.3,1.3v261.04c0,.72-.58,1.3-1.3,1.3H66.39c-.72,0-1.3-.58-1.3-1.3V108.12c0-.72.58-1.3,1.3-1.3Z"/>
    <path class="cls-7" d="m421.96,108.62v260.05H66.89V108.62h355.07m.5-3.6H66.39c-1.71,0-3.1,1.39-3.1,3.1v261.05c0,1.71,1.39,3.1,3.1,3.1h356.08c1.71,0,3.1-1.39,3.1-3.1V108.12c0-1.71-1.39-3.1-3.1-3.1h0Z"/>
  </g>
  <rect class="cls-8" x="97.19" y="145.21" width="162.2" height="24.37" rx="1" ry="1"/>
  <rect class="cls-10" x="279.78" y="145.21" width="118.6" height="24.37" rx="1" ry="1"/>
  <rect class="cls-10" x="97.06" y="186.1" width="129.3" height="24.37" rx="1" ry="1"/>
  <rect class="cls-10" x="239.68" y="186.1" width="102.63" height="24.37" rx="1" ry="1"/>
  <rect class="cls-10" x="357.59" y="186.1" width="40.8" height="24.37"/>
  <rect class="cls-2" x="90.46" y="139.96" width="175.92" height="35.6" rx="1" ry="1"/>
  <g>
    <rect class="cls-10" x="61.19" y="311.54" width="341.34" height="113.87" rx="9.64" ry="9.64"/>
    <path class="cls-1" d="m356.27,304.59l35.08-27.25c6.55-5.09,15.02-5.18,18.8-.2l3.98,5.24c3.75,4.93,1.48,12.96-5.06,17.93h0c-6.54,4.97-8.81,13-5.06,17.93l.41.54c3.34,4.4,10.44,4.91,16.72,1.21l45.7-26.92"/>
    <rect class="cls-6" x="53.89" y="304.28" width="341.34" height="113.87" rx="9.64" ry="9.64"/>
    <rect class="cls-4" x="70.46" y="323.78" width="17.7" height="17.7" rx="2.01" ry="2.01"/>
    <rect class="cls-4" x="99.63" y="323.78" width="17.7" height="17.7" rx="2.01" ry="2.01"/>
    <rect class="cls-4" x="128.81" y="323.78" width="17.7" height="17.7" rx="2.01" ry="2.01"/>
    <rect class="cls-4" x="157.98" y="323.78" width="17.7" height="17.7" rx="2.01" ry="2.01"/>
    <rect class="cls-4" x="187.16" y="323.78" width="17.7" height="17.7" rx="2.01" ry="2.01"/>
    <rect class="cls-4" x="216.33" y="323.78" width="17.7" height="17.7" rx="2.01" ry="2.01"/>
    <rect class="cls-4" x="245.51" y="323.78" width="17.7" height="17.7" rx="2.01" ry="2.01"/>
    <rect class="cls-4" x="274.68" y="323.78" width="17.7" height="17.7" rx="2.01" ry="2.01"/>
    <rect class="cls-4" x="303.86" y="323.78" width="17.7" height="17.7" rx="2.01" ry="2.01"/>
    <rect class="cls-4" x="333.03" y="323.78" width="17.7" height="17.7" rx="2.01" ry="2.01"/>
    <rect class="cls-4" x="362.21" y="323.78" width="17.7" height="17.7" rx="2.01" ry="2.01"/>
    <rect class="cls-4" x="69.81" y="378.41" width="17.7" height="17.7" rx="2.01" ry="2.01"/>
    <rect class="cls-4" x="98.99" y="378.41" width="17.7" height="17.7" rx="2.01" ry="2.01"/>
    <rect class="cls-4" x="128.16" y="378.41" width="17.7" height="17.7" rx="2.01" ry="2.01"/>
    <rect class="cls-4" x="157.98" y="378.41" width="133.76" height="17.7" rx="2.01" ry="2.01"/>
    <rect class="cls-4" x="303.21" y="378.41" width="17.7" height="17.7" rx="2.01" ry="2.01"/>
    <rect class="cls-4" x="332.39" y="378.41" width="17.7" height="17.7" rx="2.01" ry="2.01"/>
    <rect class="cls-4" x="361.57" y="378.41" width="17.7" height="17.7" rx="2.01" ry="2.01"/>
    <rect class="cls-5" x="69.81" y="351.1" width="31.51" height="17.7" rx="2.01" ry="2.01"/>
    <rect class="cls-4" x="112.8" y="351.1" width="17.7" height="17.7" rx="2.01" ry="2.01"/>
    <rect class="cls-4" x="141.97" y="351.1" width="17.7" height="17.7" rx="2.01" ry="2.01"/>
    <rect class="cls-4" x="171.15" y="351.1" width="17.7" height="17.7" rx="2.01" ry="2.01"/>
    <rect class="cls-4" x="200.32" y="351.1" width="17.7" height="17.7" rx="2.01" ry="2.01"/>
    <rect class="cls-4" x="229.5" y="351.1" width="17.7" height="17.7" rx="2.01" ry="2.01"/>
    <rect class="cls-4" x="258.67" y="351.1" width="17.7" height="17.7" rx="2.01" ry="2.01"/>
    <rect class="cls-4" x="287.85" y="351.1" width="17.7" height="17.7" rx="2.01" ry="2.01"/>
    <rect class="cls-4" x="317.02" y="351.1" width="17.7" height="17.7" rx="2.01" ry="2.01"/>
    <rect class="cls-4" x="346.2" y="351.1" width="33.07" height="17.7" rx="2.01" ry="2.01"/>
  </g>
  <rect class="cls-9" x="96.45" y="240.94" width="192.88" height="17.07" rx=".96" ry=".96"/>
  <rect class="cls-9" x="96.45" y="267.9" width="199.12" height="12.69" rx=".96" ry=".96"/>
</svg>