<?xml version="1.0" encoding="UTF-8"?>
<svg id="Layer_1" data-name="Layer 1" xmlns="http://www.w3.org/2000/svg" viewBox="0 0 500 500">
  <defs>
    <style>
      .cls-1 {
        fill: none;
      }

      .cls-1, .cls-2, .cls-3, .cls-4, .cls-5 {
        stroke-width: 0px;
      }

      .cls-6 {
        stroke-linecap: round;
        stroke-linejoin: round;
      }

      .cls-6, .cls-7 {
        fill: #196cac;
        stroke: #000;
        stroke-width: 3px;
      }

      .cls-7 {
        stroke-miterlimit: 10;
      }

      .cls-3 {
        fill: #d0e1f1;
      }

      .cls-4 {
        fill: #bccbd3;
      }

      .cls-5 {
        fill: #fff;
      }
    </style>
  </defs>
  <rect class="cls-1" width="500" height="500"/>
  <rect class="cls-4" x="72.71" y="111.87" width="356.18" height="269.68" rx="3" ry="3"/>
  <g>
    <rect class="cls-5" x="60.87" y="104.68" width="358.26" height="266.57" rx="1.3" ry="1.3"/>
    <path class="cls-2" d="m417.33,106.48v262.97H62.67V106.48h354.66m.5-3.6H62.17c-1.71,0-3.1,1.39-3.1,3.1v263.97c0,1.71,1.39,3.1,3.1,3.1h355.66c1.71,0,3.1-1.39,3.1-3.1V105.98c0-1.71-1.39-3.1-3.1-3.1h0Z"/>
  </g>
  <rect class="cls-3" x="168.28" y="313.06" width="153.92" height="12.69" rx=".96" ry=".96"/>
  <rect class="cls-3" x="168.28" y="289.69" width="187.98" height="12.69" rx=".96" ry=".96"/>
  <rect class="cls-3" x="168.28" y="336.06" width="199.12" height="12.69" rx=".96" ry=".96"/>
  <rect class="cls-4" x="168.28" y="132.37" width="120.45" height="24.34"/>
  <rect class="cls-4" x="296.03" y="132.37" width="96.02" height="24.34"/>
  <rect class="cls-4" x="168.28" y="168.66" width="96.02" height="24.34"/>
  <rect class="cls-4" x="274.2" y="168.66" width="76.22" height="24.34"/>
  <rect class="cls-4" x="361.76" y="168.66" width="30.3" height="24.34"/>
  <g>
    <rect class="cls-7" x="98.91" y="133.29" width="27.83" height="66.17" rx="1" ry="1"/>
    <rect class="cls-7" x="98.91" y="208.9" width="27.83" height="42.42" rx="1" ry="1"/>
    <rect class="cls-7" x="98.91" y="260.77" width="27.83" height="30.2" rx="1" ry="1"/>
    <path class="cls-6" d="m126.75,319.49v-16.92c0-.78-.63-1.42-1.42-1.42h-25c-.78,0-1.42.63-1.42,1.42v16.92c0,.78-.63,1.42-1.42,1.42h-14.84s-.03.03-.02.04l30.19,30.19,30.19-30.19s0-.04-.02-.04h-14.84c-.78,0-1.42-.63-1.42-1.42Z"/>
  </g>
</svg>