<?xml version="1.0" encoding="UTF-8"?>
<svg id="Layer_1" data-name="Layer 1" xmlns="http://www.w3.org/2000/svg" viewBox="0 0 500 500">
  <defs>
    <style>
      .cls-1, .cls-2, .cls-3, .cls-4, .cls-5, .cls-6 {
        stroke-width: 0px;
      }

      .cls-1, .cls-7 {
        fill: none;
      }

      .cls-8 {
        fill: #196cac;
        stroke: #000;
        stroke-miterlimit: 10;
        stroke-width: 4px;
      }

      .cls-3 {
        fill: #231f20;
      }

      .cls-4 {
        fill: #d0e1f1;
      }

      .cls-5 {
        fill: #bccbd3;
      }

      .cls-6 {
        fill: #fff;
      }

      .cls-7 {
        stroke: #fff;
        stroke-linecap: round;
        stroke-linejoin: round;
        stroke-width: 6px;
      }
    </style>
  </defs>
  <rect class="cls-1" y="-.01" width="499.71" height="499.71"/>
  <rect class="cls-1" y="-.01" width="499.71" height="499.71"/>
  <rect class="cls-5" x="92.57" y="125.19" width="355.97" height="269.52" rx="3" ry="3"/>
  <g>
    <path class="cls-6" d="m82.62,384.42c-.73,0-1.32-.59-1.32-1.32v-235.37h358.05v235.37c0,.73-.59,1.32-1.32,1.32H82.62Z"/>
    <path class="cls-2" d="m437.56,149.53v233.08H83.11v-233.08h354.45m3.6-3.6H79.51v237.16c0,1.72,1.4,3.12,3.12,3.12h355.42c1.72,0,3.12-1.4,3.12-3.12v-237.16h0Z"/>
  </g>
  <g>
    <path class="cls-5" d="m81.01,152.68v-33.35c0-.89.72-1.62,1.62-1.62h355.42c.89,0,1.62.73,1.62,1.62v33.35H81.01Z"/>
    <path class="cls-3" d="m438.04,119.21c.06,0,.12.05.12.12v31.85H82.51v-31.85c0-.06.05-.12.12-.12h355.42m0-3H82.62c-1.72,0-3.12,1.4-3.12,3.12v34.85h361.65v-34.85c0-1.72-1.4-3.12-3.12-3.12h0Z"/>
  </g>
  <path class="cls-5" d="m367.9,300.2c12.04,9.48,24.08,12.82,40.6,12.82,39.09,0,70.77-31.69,70.77-70.77s-31.69-70.77-70.77-70.77-70.77,31.69-70.77,70.77c0,14.68,2.51,23.83,10.16,35.13l-13.57,39.4,33.58-16.58Z"/>
  <rect class="cls-4" x="116.32" y="304.17" width="178.21" height="12.61" rx=".96" ry=".96"/>
  <rect class="cls-4" x="116.32" y="325.21" width="178.21" height="12.61" rx=".96" ry=".96"/>
  <rect class="cls-4" x="116.32" y="259.92" width="178.21" height="12.61" rx=".96" ry=".96"/>
  <rect class="cls-4" x="116.32" y="280.96" width="148.77" height="12.61" rx=".96" ry=".96"/>
  <path class="cls-5" d="m155.02,204.36c9.48-12.04,12.82-24.08,12.82-40.6,0-39.09-31.69-70.77-70.77-70.77S26.3,124.67,26.3,163.76s31.69,70.77,70.77,70.77c14.68,0,23.83-2.51,35.13-10.16l39.4,13.57-16.58-33.58Z"/>
  <path class="cls-8" d="m144.64,201.64c8.88-11.28,14.19-25.49,14.19-40.96,0-36.6-29.67-66.27-66.27-66.27S26.3,124.08,26.3,160.68s29.67,66.27,66.27,66.27c13.75,0,26.52-4.19,37.1-11.35l29.17,11.35-14.19-25.31Z"/>
  <g>
    <polyline class="cls-7" points="56.19 189.22 68.21 132.62 76.74 132.62 87.21 189.22"/>
    <line class="cls-7" x1="61.86" y1="162.52" x2="81.19" y2="162.52"/>
  </g>
  <path class="cls-6" d="m105.4,168.94c0-1.75.24-3.28.71-4.58.47-1.3,1.26-2.53,2.36-3.69,1.1-1.16,2.54-2.36,4.34-3.59,1.54-1.04,2.8-2.02,3.78-2.95.97-.92,1.69-1.93,2.17-3.02.47-1.09.71-2.42.71-3.98,0-1.94-.74-3.5-2.21-4.69-1.47-1.18-3.58-1.78-6.32-1.78-2.34,0-4.52.3-6.54.89-2.02.59-4.13,1.39-6.32,2.38l-2.84-6.04c2.29-1.04,4.67-1.91,7.14-2.59,2.47-.69,5.32-1.03,8.56-1.03s6.07.5,8.49,1.49c2.42,1,4.3,2.42,5.65,4.26,1.35,1.85,2.02,4.1,2.02,6.75,0,2.13-.3,3.98-.9,5.54-.6,1.56-1.51,2.97-2.73,4.23-1.22,1.26-2.8,2.57-4.75,3.94-1.75,1.23-3.08,2.29-4,3.16-.92.88-1.55,1.75-1.87,2.63-.33.88-.49,1.98-.49,3.3v1.07h-6.95v-1.71Zm3.74,17.48c-1.55,0-2.82-.43-3.81-1.28-1-.85-1.5-2.18-1.5-3.98,0-1.89.5-3.24,1.5-4.05,1-.8,2.27-1.21,3.81-1.21s2.8.42,3.78,1.24c.97.83,1.46,2.17,1.46,4.01s-.49,3.07-1.46,3.94c-.97.88-2.23,1.31-3.78,1.31Z"/>
  <path class="cls-8" d="m363.23,288.03c11.28,8.88,25.49,14.19,40.96,14.19,36.6,0,66.27-29.67,66.27-66.27s-29.67-66.27-66.27-66.27-66.27,29.67-66.27,66.27c0,13.75,4.19,26.52,11.35,37.1l-11.35,29.17,25.31-14.19Z"/>
  <path class="cls-6" d="m429.75,246.42c0-1.75.24-3.28.71-4.58.47-1.3,1.26-2.53,2.36-3.69,1.1-1.16,2.54-2.36,4.34-3.59,1.54-1.04,2.8-2.02,3.78-2.95.97-.92,1.69-1.93,2.17-3.02.47-1.09.71-2.42.71-3.98,0-1.94-.74-3.5-2.21-4.69-1.47-1.18-3.58-1.78-6.32-1.78-2.34,0-4.52.3-6.54.89-2.02.59-4.13,1.39-6.32,2.38l-2.84-6.04c2.29-1.04,4.67-1.91,7.14-2.59,2.47-.69,5.32-1.03,8.56-1.03s6.07.5,8.49,1.49c2.42,1,4.3,2.42,5.65,4.26,1.35,1.85,2.02,4.1,2.02,6.75,0,2.13-.3,3.98-.9,5.54-.6,1.56-1.51,2.97-2.73,4.23-1.22,1.26-2.8,2.57-4.75,3.94-1.75,1.23-3.08,2.29-4,3.16-.92.88-1.55,1.75-1.87,2.63-.33.88-.49,1.98-.49,3.3v1.07h-6.95v-1.71Zm3.74,17.48c-1.55,0-2.82-.43-3.81-1.28-1-.85-1.5-2.18-1.5-3.98,0-1.89.5-3.24,1.5-4.05,1-.8,2.27-1.21,3.81-1.21s2.8.42,3.78,1.24c.97.83,1.46,2.17,1.46,4.01s-.49,3.07-1.46,3.94c-.97.88-2.23,1.31-3.78,1.31Z"/>
  <g>
    <line class="cls-7" x1="361.25" y1="213.92" x2="408.21" y2="213.92"/>
    <line class="cls-7" x1="384.73" y1="205.37" x2="384.73" y2="211.29"/>
    <path class="cls-7" d="m368.29,217.21s15.04,43.28,39.92,49.33"/>
    <path class="cls-7" d="m401.52,217.21s-15.17,43.28-40.28,49.33"/>
  </g>
</svg>