<?xml version="1.0" encoding="UTF-8"?>
<svg id="Layer_1" data-name="Layer 1" xmlns="http://www.w3.org/2000/svg" viewBox="0 0 500 500">
  <defs>
    <style>
      .cls-1 {
        fill: none;
      }

      .cls-1, .cls-2, .cls-3 {
        stroke-width: 0px;
      }

      .cls-2 {
        fill: #196cac;
      }

      .cls-3 {
        fill: #d0e1f1;
      }
    </style>
  </defs>
  <rect class="cls-1" x=".31" y=".31" width="499.39" height="499.39"/>
  <path class="cls-2" d="m320.43,100.35c-26.28,0-50.84,7.37-71.73,20.15,39.52,24.18,65.89,67.74,65.89,117.47s-26.37,93.28-65.89,117.47c20.89,12.78,45.45,20.15,71.73,20.15,76.01,0,137.62-61.61,137.62-137.62s-61.61-137.62-137.62-137.62Z"/>
  <path class="cls-2" d="m314.59,237.97c0-49.72-26.37-93.28-65.89-117.47-39.52,24.18-65.89,67.74-65.89,117.47s26.37,93.28,65.89,117.47c39.52-24.18,65.89-67.74,65.89-117.47Z"/>
  <g>
    <path class="cls-3" d="m246.79,354.23c.05-.83-.13-1.68-.57-2.46-.83-1.47-2.35-2.29-3.92-2.29-.64,0-1.29.15-1.9.44-34.86-24.97-57.59-65.8-57.59-111.95,0-49.72,26.37-93.28,65.89-117.47-4.65-2.85-9.5-5.41-14.5-7.7-.07-.04-.13-.08-.2-.12-.38-.17-.77-.34-1.15-.51-.33-.15-.67-.29-1-.44-.44-.19-.87-.39-1.31-.57,0,0,0,0,0,0-.09-.04-.18-.08-.27-.12,0,0,0,0-.01,0,0,0-.02,0-.03-.01,0,0-.01,0-.02,0,0,0-.01,0-.02,0,0,0-.02,0-.03-.01,0,0,0,0-.02,0-.01,0-.02,0-.03-.01,0,0,0,0-.02,0-.01,0-.02,0-.03-.01,0,0-.01,0-.02,0-.01,0-.02,0-.03-.01,0,0-.01,0-.02,0-.01,0-.02,0-.04-.01,0,0,0,0-.01,0l-.04-.02s0,0,0,0c-.01,0-.03-.01-.04-.02h0s-.03-.02-.05-.02h0c-.55-.23-1.1-.45-1.65-.67-.02,0-.04-.02-.06-.03-.17-.07-.35-.14-.52-.21-.05-.02-.09-.02-.14-.04-7.28-2.87-14.86-5.13-22.68-6.74-.05-.01-.09-.03-.14-.04-1.17-.24-2.35-.46-3.53-.67-.03,0-.05,0-.08-.01-1.1-.19-2.2-.37-3.3-.54-.07-.01-.14,0-.21-.02-6.69-1-13.53-1.53-20.49-1.53h0s-.07,0-.1,0h-.04s-.02,0-.03,0h-.02s-.02,0-.03,0c0,0-.02,0-.02,0h-.03s-.01,0-.02,0c-.01,0-.03,0-.04,0,0,0,0,0-.01,0-.01,0-.03,0-.04,0h-.01s-.03,0-.04,0c0,0,0,0-.01,0-.01,0-.03,0-.04,0h0s-.03,0-.05,0c0,0,0,0-.01,0-.01,0-.03,0-.04,0,0,0,0,0-.01,0-.01,0-.03,0-.04,0,0,0,0,0-.01,0-.01,0-.03,0-.04,0,0,0,0,0-.01,0-.01,0-.03,0-.04,0,0,0-.01,0-.02,0-.01,0-.03,0-.04,0,0,0-.01,0-.02,0-.01,0-.03,0-.04,0,0,0,0,0-.01,0-.01,0-.03,0-.04,0,0,0,0,0-.01,0-.01,0-.03,0-.04,0,0,0,0,0-.01,0-.01,0-.03,0-.04,0,0,0,0,0-.01,0-.01,0-.03,0-.04,0,0,0,0,0-.01,0-.01,0-.03,0-.04,0,0,0,0,0,0,0-.02,0-.03,0-.05,0,0,0,0,0,0,0-.02,0-.03,0-.05,0,0,0,0,0,0,0-.02,0-.03,0-.05,0,0,0,0,0,0,0-.02,0-.03,0-.05,0,0,0,0,0,0,0-.02,0-.03,0-.05,0h0s-.03,0-.05,0c0,0,0,0,0,0-.02,0-.03,0-.05,0,0,0,0,0,0,0-.02,0-.03,0-.05,0,0,0,0,0,0,0-.02,0-.03,0-.05,0,0,0,0,0,0,0-.02,0-.03,0-.05,0h0s-.04,0-.05,0c0,0,0,0,0,0-.02,0-.04,0-.05,0h0c-.29,0-.58.02-.87.02-.57.01-1.15.03-1.72.04-.3,0-.6.01-.89.02,0,0,0,0,0,0-.02,0-.03,0-.05,0,0,0,0,0,0,0-.02,0-.03,0-.05,0,0,0-.01,0-.02,0-.01,0-.03,0-.04,0,0,0-.01,0-.02,0-.01,0-.02,0-.03,0,0,0-.02,0-.03,0,0,0-.02,0-.03,0,0,0-.02,0-.03,0,0,0-.02,0-.03,0-.01,0-.02,0-.03,0,0,0-.02,0-.02,0-.01,0-.02,0-.04,0,0,0-.01,0-.02,0-.01,0-.03,0-.04,0,0,0,0,0-.01,0-.02,0-.03,0-.05,0,0,0,0,0,0,0-.02,0-.03,0-.05,0h0c-.36.02-.72.03-1.09.05,0,0,0,0,0,0-8.09.41-15.99,1.51-23.64,3.25-.03,0-.05,0-.08.01-.1.02-.19.04-.29.07-.04,0-.09.02-.13.03-.18.04-.37.08-.55.13-.01,0-.02,0-.04,0,0,0-.01,0-.02,0,0,0-.02,0-.03,0,0,0-.02,0-.03,0,0,0,0,0-.02,0-.01,0-.02,0-.04,0,0,0,0,0,0,0-.03,0-.07.02-.1.02h0s-.03,0-.05.01h0c-.36.09-.72.18-1.08.27-.63.15-1.25.31-1.88.47-.18.05-.36.09-.54.14-.01,0-.03,0-.04.01,0,0,0,0-.01,0-.01,0-.03,0-.04.01,0,0,0,0,0,0-.64.17-1.28.35-1.91.53,0,0,0,0-.01,0-7.74,2.19-15.21,5.04-22.33,8.49-.02,0-.03.01-.05.02-.64.31-1.28.63-1.91.95h0s-.03.02-.05.02c0,0,0,0,0,0l-.05.02h0s-.03.02-.04.02h0s-.03.02-.04.02h0s-.03.02-.04.02c0,0,0,0,0,0-.01,0-.03.01-.04.02,0,0,0,0-.01,0-.01,0-.03.01-.04.02h-.01s-.02.02-.03.02c-.03.02-.07.03-.1.05,0,0,0,0,0,0-.01,0-.03.01-.04.02,0,0,0,0,0,0-.01,0-.03.01-.04.02,0,0,0,0,0,0-.01,0-.02.01-.04.02,0,0,0,0-.01,0-.01,0-.03.01-.04.02,0,0,0,0,0,0-.01,0-.03.01-.04.02,0,0,0,0,0,0-.02,0-.02.01-.04.02,0,0,0,0,0,0-.02,0-.02.01-.04.02,0,0,0,0,0,0,0,0,0,0,0,0,0,0,0,0,0,0-.02,0-.03.01-.04.02,0,0,0,0,0,0-.07.04-.14.08-.21.11-1,.52-2,1.05-2.99,1.59-.08.05-.17.09-.25.13-.02.01-.03.03-.05.04-6.98,3.84-13.59,8.27-19.77,13.22-.03.02-.06.04-.09.06,0,0,0,0-.01,0,0,0-.02.01-.02.02,0,0-.01,0-.02.01l-.02.02s-.01.01-.02.02c0,0-.01.01-.02.02,0,0-.02.01-.02.02,0,0,0,0-.01.01-.01,0-.02.01-.03.02,0,0,0,0-.01,0-.01,0-.02.02-.03.03h0c-.12.1-.23.2-.34.29-1.33,1.08-2.65,2.19-3.94,3.32-.08.07-.17.14-.25.21,0,0,0,0,0,0,0,0-.02.02-.03.03,0,0,0,0,0,0,0,0-.02.02-.03.03,0,0,0,0-.01,0,0,0-.02.02-.03.03,0,0,0,0-.01,0,0,0-.02.01-.02.02h-.02s-.02.03-.02.04c0,0-.01,0-.02.01,0,0-.02.02-.02.02,0,0-.01,0-.02.01,0,0-.02.02-.02.02,0,0-.01.01-.02.02,0,0-.01.01-.02.02,0,0-.01.01-.02.02,0,0-.01.01-.02.02,0,0-.02.01-.02.02,0,0-.01.01-.02.01,0,0-.02.01-.02.02,0,0,0,0-.02.01-.01,0-.02.02-.03.03h0s-.03.03-.04.04c0,0,0,0,0,0-.03.02-.05.05-.08.07-.02.02-.04.05-.07.07-5.94,5.29-11.41,11.08-16.36,17.31-.01.01-.03.02-.04.04-.06.07-.11.15-.17.22-.77.97-1.52,1.95-2.26,2.94,0,.01-.02.02-.03.03,0,0,0,0,0,0-.01.01-.02.02-.03.04,0,0,0,0,0,0,0,.01-.02.02-.02.03,0,0,0,0,0,.01-.01.01-.01.02-.02.03,0,0,0,0,0,.01,0,0-.02.02-.02.03,0,0,0,.01-.01.02,0,0-.01.02-.02.03,0,0,0,.01-.01.02,0,0-.01.02-.02.02,0,0-.01.01-.02.02,0,.01,0,.01-.02.02,0,0-.01.02-.02.03,0,0,0,.01-.01.02,0,.01-.02.02-.02.03,0,0,0,0,0,0-.5.67-.99,1.35-1.48,2.03,0,0,0,.01-.01.02-4.61,6.46-8.67,13.34-12.12,20.56,0,.02-.02.03-.03.05-.4.84-.79,1.69-1.18,2.54,0,0,0,0,0,0,0,0,0,.01,0,.02,0,0,0,.01,0,.02,0,0,0,0,0,0,0,0,0,0,0,.01,0,.01-.01.02-.02.04,0,0,0,0,0,.01,0,.01-.01.03-.02.04h0s-.01.04-.02.05h0s-.01.04-.02.05c0,0,0,0,0,0,0,.01-.01.03-.02.04,0,0,0,0,0,0,0,.01-.01.03-.02.04,0,0,0,0,0,0,0,.02-.01.03-.02.05h0s-.01.03-.02.05h0c-.28.62-.55,1.23-.81,1.85h0s-.01.03-.02.05h0s-.01.03-.02.05c0,0,0,.02,0,.02,0,0,0,.02-.01.03,0,0,0,.02-.01.02,0,0,0,.02-.01.02,0,0,0,.02-.01.03,0,0,0,.01,0,.02,0,0-.01.02-.01.03,0,0,0,0,0,.01,0,.02,0,.02-.02.04,0,0,0,0,0,0,0,.02-.01.02-.02.04,0,0,0,0,0,0,0,.02-.01.03-.02.04,0,0,0,0,0,0-.04.1-.08.2-.13.3-.03.07-.06.13-.08.2-.09.22-.18.44-.28.65-.01.02-.01.05-.02.08-3.02,7.26-5.42,14.84-7.17,22.67,0,.03-.02.06-.03.1-.06.27-.12.53-.17.8,0,.02,0,.03-.01.05h0s0,.04,0,.05c0,0,0,0,0,.01,0,.01,0,.02,0,.04,0,0,0,0,0,.02,0,0,0,.02,0,.03,0,0,0,.02,0,.03,0,0,0,0,0,.01,0,.01,0,.03,0,.04,0,0,0,0,0,0-.05.21-.09.43-.13.64-.09.41-.17.82-.25,1.23-.13.65-.26,1.31-.38,1.96-.08.42-.15.83-.23,1.25-.04.24-.09.47-.13.71,0,.03,0,.07,0,.1-1.26,7.48-1.92,15.15-1.92,22.99,0,.24,0,.48,0,.72,0,.02,0,.05,0,.07,0,.85.02,1.7.04,2.54h0s0,.04,0,.06h0s0,.04,0,.06h0s0,.04,0,.05c0,0,0,0,0,.01,0,.01,0,.03,0,.04,0,0,0,0,0,0,0,0,0,.01,0,.01,0,.01,0,.02,0,.03,0,0,0,.01,0,.02,0,.01,0,.03,0,.04,0,0,0,0,0,.01,0,.01,0,.03,0,.04,0,0,0,0,0,.01,0,.01,0,.03,0,.04,0,0,0,0,0,.01,0,.01,0,.03,0,.04,0,0,0,0,0,0,0,.01,0,.03,0,.05,0,0,0,0,0,.01,0,.01,0,.03,0,.04,0,0,0,0,0,.01,0,.01,0,.03,0,.04,0,0,0,0,0,.01,0,.01,0,.03,0,.04,0,0,0,0,0,.01,0,.01,0,.03,0,.04,0,0,0,0,0,0,0,.02,0,.03,0,.05,0,0,0,0,0,0,0,.02,0,.03,0,.05,0,0,0,0,0,0,0,.07,0,.14,0,.22h0c.02.48.04.97.06,1.45.02.52.04,1.04.07,1.55,0,.12,0,.25.02.38,0,.03.01.05.01.08.46,8.06,1.6,15.94,3.39,23.58,0,.01,0,.03,0,.04.1.43.21.85.32,1.27.15.63.3,1.26.47,1.89.13.5.27,1,.41,1.5.17.61.33,1.22.5,1.83.03.1.06.21.08.31,0,.03.02.05.03.08,2.23,7.69,5.12,15.11,8.59,22.18.01.03.02.05.03.08.26.53.53,1.06.8,1.59.09.17.17.34.26.52.02.05.05.09.07.14,0,0,0,0,0,0,0,.01.01.03.02.04,0,0,0,0,0,.01,0,.01.01.02.02.03,0,0,0,0,0,.02,0,.01.01.02.02.03,0,0,0,.01,0,.02,0,0,0,.02.01.03,0,0,0,.01.01.02,0,0,0,.02.01.03,0,0,0,.01.01.02,0,0,0,.02.01.02,0,0,0,.02.01.03,0,0,0,.01.01.02,0,.01,0,.02.01.03,0,0,0,.01,0,.02,0,.01.01.02.02.03,0,0,0,0,0,.01,0,.01.01.02.02.04,0,0,0,0,0,0,0,.02.01.03.02.04,0,0,0,0,0,0,.26.49.52.97.78,1.46.16.3.32.61.49.91.04.06.07.13.1.2,0,0,0,0,0,0,.12.21.23.42.35.64,0,0,0,0,0,0,0,.02.02.03.02.04,0,0,0,0,0,0,0,.01.01.03.02.04,0,0,0,0,0,.01,0,.01.01.02.02.04,0,0,0,0,0,0,0,.02.01.02.02.04,0,0,0,0,0,0,0,.02.01.02.02.04,0,0,0,0,0,0,0,0,0,.01.01.02.02.04.05.08.08.12,3.87,6.94,8.33,13.51,13.3,19.64.02.02.03.05.05.07.11.14.23.27.34.41.4.49.81.97,1.21,1.46.32.39.65.77.98,1.15.42.49.85.98,1.28,1.46.25.28.5.57.75.86.01.01.03.02.04.04,5.33,5.92,11.17,11.38,17.45,16.3,0,0,0,0,.01.01.81.64,1.63,1.27,2.46,1.89.15.11.3.21.44.32.67.5,1.35,1,2.03,1.49,0,0,0,0,0,0,0,0,.02.01.02.02,0,0,.02.01.02.02,0,0,.01,0,.02.01,0,0,.02.01.03.02,0,0,0,0,.01,0,.01,0,.02.02.03.02,0,0,0,0,.01,0,.01,0,.02.02.04.03,0,0,0,0,0,0,0,0,.01,0,.02.01,0,0,.01,0,.02.01.15.11.3.22.46.32.02.02.05.03.07.04,6.47,4.55,13.34,8.56,20.56,11.96.03.01.05.03.08.05.29.14.59.26.88.4.56.26,1.12.51,1.68.76.49.22.97.43,1.46.64.56.24,1.13.48,1.7.72.24.1.48.21.72.3.03.01.07.02.1.03,7.27,2.97,14.85,5.33,22.68,7.03.03,0,.07.03.1.03.07.02.14.03.21.05h0s.03,0,.05.01h0s.03,0,.05.01c0,0,0,0,0,0,.01,0,.03,0,.04,0,0,0,0,0,0,0,.01,0,.03,0,.04,0,0,0,0,0,.01,0,.01,0,.03,0,.04,0h.01s.03,0,.04.01c0,0,0,0,.01,0,.01,0,.03,0,.04,0,0,0,0,0,.01,0,.01,0,.03,0,.04,0,0,0,.01,0,.02,0,.01,0,.02,0,.03,0,0,0,.02,0,.02,0,.01,0,.02,0,.03,0,0,0,.02,0,.02,0,0,0,.02,0,.03,0,0,0,.02,0,.02,0,0,0,.02,0,.03,0,.01,0,.01,0,.03,0,0,0,.02,0,.02,0,.01,0,.02,0,.03,0,0,0,.02,0,.02,0,.01,0,.02,0,.03,0,0,0,.02,0,.02,0,.01,0,.02,0,.03,0,0,0,.02,0,.02,0,.01,0,.02,0,.03,0,0,0,.01,0,.02,0,.01,0,.02,0,.04,0,0,0,.01,0,.02,0,.01,0,.02,0,.04,0h0s.03,0,.04.01c0,0,0,0,0,0,.04,0,.07.01.11.02.21.04.43.08.65.13.83.17,1.65.33,2.48.48.36.07.73.13,1.1.19.44.08.87.16,1.31.23.04,0,.08,0,.12,0,7.22,1.17,14.62,1.79,22.17,1.79.47,0,.93-.02,1.4-.02.05,0,.1.02.16.02.01,0,.03,0,.04,0,.65,0,1.3-.02,1.95-.04h0c.22,0,.44-.02.66-.03.89-.03,1.78-.07,2.67-.12.57-.03,1.15-.04,1.72-.07.05,0,.09-.02.14-.02,7.95-.5,15.71-1.68,23.24-3.47.11-.02.21-.03.32-.06.23-.06.46-.12.7-.18.32-.08.64-.16.96-.24,1.12-.28,2.23-.58,3.34-.89.32-.09.64-.18.96-.27.27-.08.54-.15.81-.23.06-.02.12-.05.18-.07,7.55-2.24,14.83-5.12,21.78-8.56.11-.04.23-.09.34-.14.79-.4,1.58-.8,2.37-1.21,0,0,0,0,0,0,.13-.07.27-.13.4-.2,0,0,0,0,0,0,.02,0,.03-.01.04-.02,0,0,0,0,0,0,.02,0,.02-.01.04-.02,0,0,0,0,0,0,.02,0,.02-.01.04-.02,0,0,0,0,0,0,.01,0,.02-.01.04-.02,0,0,0,0,.01,0,0,0,.03-.01.03-.02,0,0,0,0,.01,0,0,0,.02-.01.03-.02,0,0,.01,0,.02,0,0,0,.02-.01.03-.02,0,0,.01,0,.02,0,0,0,.02-.01.03-.01,0,0,.01,0,.02-.01,0,0,.02,0,.02-.01,0,0,.02,0,.03-.01,0,0,.02,0,.02-.01.01,0,.02-.01.03-.02,0,0,0,0,.02,0,.01,0,.02-.01.04-.02,0,0,0,0,.01,0,.02,0,.03-.02.05-.02h0c.95-.51,1.89-1.02,2.83-1.55.02-.01.04-.03.06-.04,1.39-.78,2.76-1.59,4.12-2.42-.64-.39-1.27-.81-1.91-1.21Z"/>
    <path class="cls-3" d="m266.55,331.94c-1.08,0-2.17.39-3.03,1.17-1.61,1.46-3.27,2.9-4.95,4.28-1.92,1.58-2.2,4.41-.62,6.33.89,1.08,2.18,1.64,3.48,1.64,1,0,2.01-.33,2.84-1.01,1.81-1.49,3.58-3.02,5.31-4.6,1.83-1.67,1.96-4.51.29-6.35-.89-.98-2.11-1.47-3.33-1.47Z"/>
    <path class="cls-3" d="m261.36,134.92c1.51-1.97,1.13-4.8-.84-6.31-.22-.17-.43-.33-.65-.5h0s-.03-.02-.04-.03h0s-.06-.05-.08-.07h0c-.2-.15-.41-.31-.61-.46h0c-.23-.18-.47-.35-.7-.52h0c-.76-.56-1.53-1.11-2.31-1.66,0,0,0,0,0,0-.03-.02-.06-.04-.09-.06h0s-.03-.02-.04-.03h0s-.03-.02-.04-.03c0,0,0,0,0,0-.01,0-.03-.02-.04-.03h0s-.03-.02-.04-.03h0s-.06-.04-.08-.06h0c-.06-.04-.12-.09-.18-.13,0,0,0,0,0,0-.01,0-.03-.02-.04-.03,0,0,0,0,0,0-.01,0-.03-.02-.04-.03h0s-.02-.02-.04-.03c0,0,0,0,0,0-.01,0-.02-.02-.03-.02,0,0-.01,0-.01-.01-.01,0-.02-.01-.03-.02,0,0-.01,0-.01-.01,0,0-.02-.01-.03-.02,0,0-.01,0-.02-.01,0,0-.02-.01-.03-.02,0,0-.01,0-.02-.01,0,0-.01-.01-.02-.02,0,0-.02-.01-.02-.02,0,0-.01,0-.02-.01,0,0-.02-.01-.02-.02,0,0-.01,0-.02-.01,0,0-.02-.01-.03-.02,0,0-.01,0-.02-.01-.01,0-.02-.01-.03-.02,0,0,0,0-.01,0-.01,0-.02-.01-.03-.02,0,0,0,0,0,0-.01,0-.03-.02-.04-.03t0,0s-.09-.06-.13-.09c-.78-.53-1.67-.79-2.54-.79-1.43,0-2.84.68-3.71,1.95-1.41,2.05-.89,4.85,1.16,6.26,1.79,1.23,3.57,2.52,5.3,3.84.82.62,1.78.93,2.73.93,1.35,0,2.69-.61,3.58-1.77Z"/>
    <path class="cls-3" d="m300.12,200.74c.63,2.08,1.21,4.2,1.73,6.31.51,2.05,2.34,3.42,4.37,3.42.36,0,.72-.04,1.08-.13,2.41-.6,3.89-3.03,3.29-5.45-.05-.19-.1-.39-.14-.58,0,0,0,0,0,0,0,0,0-.02,0-.03-.52-2.07-1.09-4.12-1.7-6.15-.59-1.94-2.37-3.19-4.3-3.19-.43,0-.87.06-1.3.19-2.38.72-3.73,3.23-3.01,5.61Z"/>
    <path class="cls-3" d="m282.25,156.37c1.91-1.59,2.17-4.42.59-6.33-.69-.82-1.38-1.64-2.08-2.44,0,0,0,0,0,0-.17-.19-.34-.39-.51-.58,0,0,0,0,0,0-.01-.01-.02-.02-.03-.03,0,0,0,0,0,0-.01-.01-.02-.02-.03-.03,0,0,0,0,0,0-.01-.01-.02-.02-.03-.03,0,0,0,0,0,0-.01-.01-.02-.02-.03-.03,0,0,0,0,0,0-.01-.01-.02-.02-.03-.03,0,0,0,0,0,0-.01-.01-.02-.02-.03-.03,0,0,0,0,0,0-.01-.01-.02-.02-.03-.04,0,0,0,0,0,0-.59-.67-1.19-1.33-1.79-1.98-.89-.96-2.09-1.44-3.3-1.44-1.09,0-2.18.39-3.05,1.19-1.83,1.68-1.95,4.53-.26,6.36,1.47,1.6,2.92,3.25,4.31,4.92.89,1.07,2.17,1.62,3.46,1.62,1.01,0,2.03-.34,2.88-1.04Z"/>
    <path class="cls-3" d="m309.17,254.34c-.24-.04-.47-.06-.7-.06-2.18,0-4.09,1.58-4.44,3.8-.34,2.15-.73,4.31-1.18,6.43-.51,2.43,1.05,4.82,3.48,5.33.31.07.62.1.93.1,2.08,0,3.95-1.46,4.4-3.58.44-2.1.83-4.21,1.18-6.34h0s0-.04,0-.05h0s0-.04,0-.05c0,0,0,0,0-.02,0-.01,0-.02,0-.04,0,0,0-.01,0-.02,0-.01,0-.02,0-.03,0,0,0-.02,0-.03,0,0,0-.02,0-.03,0,0,0-.02,0-.03,0,0,0-.01,0-.02,0-.01,0-.02,0-.04,0,0,0,0,0-.01,0-.01,0-.03,0-.04,0,0,0,0,0,0,0-.02,0-.03,0-.05h0s0-.06.01-.09c.38-2.45-1.29-4.75-3.75-5.14Z"/>
    <path class="cls-3" d="m302.2,283.45c-.55-.22-1.12-.33-1.68-.33-1.78,0-3.47,1.07-4.18,2.82-.81,2.01-1.68,4.03-2.59,6-1.04,2.26-.06,4.93,2.19,5.97.61.28,1.25.42,1.89.42,1.7,0,3.33-.97,4.09-2.61.12-.26.24-.53.36-.79v-.02s.02-.02.02-.03c0-.01,0-.01.01-.03,0,0,0-.01,0-.02,0-.01.01-.02.02-.03,0,0,0,0,0-.01,0-.02.01-.02.02-.04,0,0,0,0,0,0,0-.02.01-.03.02-.04,0,0,0,0,0,0,.81-1.78,1.58-3.58,2.31-5.41.92-2.3-.19-4.92-2.5-5.85Z"/>
    <path class="cls-3" d="m314.5,232.99s0,0,0,0c0-.01,0-.03,0-.05,0,0,0,0,0,0,0-.01,0-.03,0-.04,0-.01,0-.02,0-.03,0,0,0-.01,0-.02,0-.01,0-.03,0-.04,0,0,0,0,0,0,0-.02,0-.03,0-.05,0,0,0,0,0,0,0-.04,0-.07,0-.11h0c-.04-1.09-.1-2.18-.16-3.27,0,0,0,0,0,0,0-.02,0-.03,0-.05,0,0,0,0,0,0,0-.02,0-.03,0-.05,0,0,0,0,0-.01,0-.01,0-.03,0-.04,0,0,0,0,0-.01,0-.01,0-.03,0-.04,0,0,0-.01,0-.02,0-.01,0-.02,0-.03,0,0,0-.02,0-.03,0,0,0-.02,0-.03,0,0,0-.03,0-.04,0,0,0-.01,0-.02,0-.01,0-.03,0-.04,0,0,0,0,0-.01,0-.02,0-.03,0-.05h0c0-.1-.01-.2-.02-.29-.16-2.37-2.14-4.19-4.48-4.19-.1,0-.2,0-.31.01-2.48.17-4.35,2.31-4.19,4.79.15,2.16.24,4.37.28,6.54.04,2.46,2.05,4.42,4.5,4.42.03,0,.05,0,.08,0,2.48-.04,4.46-2.09,4.42-4.57-.01-.86-.04-1.73-.07-2.59Z"/>
    <path class="cls-3" d="m288.86,310.25c-.78-.55-1.68-.81-2.57-.81-1.42,0-2.82.67-3.7,1.93-1.24,1.78-2.54,3.56-3.87,5.27-1.52,1.97-1.16,4.79.8,6.31.82.63,1.79.94,2.75.94,1.34,0,2.67-.6,3.56-1.74.81-1.05,1.6-2.1,2.39-3.17,0,0,0,0,0,0,0-.01.02-.02.02-.03,0,0,0,0,0,0,0-.01.01-.02.02-.03,0,0,0,0,.01-.01,0,0,.01-.02.02-.03,0,0,0-.01.01-.02,0,0,.01-.02.02-.03,0,0,0-.01.01-.02,0,0,.01-.01.02-.02l.02-.02s0-.01.01-.02c0,0,.01-.02.02-.03,0,0,0-.01.01-.02,0,0,.01-.02.02-.03,0,0,0-.01.01-.01,0-.01.02-.02.02-.03h0s.02-.04.03-.05h0c.49-.68.98-1.36,1.46-2.05,1.42-2.04.92-4.84-1.12-6.26Z"/>
    <path class="cls-3" d="m297.84,181.94c2.21-1.12,3.1-3.82,1.99-6.03-1.04-2.05-2.13-4.07-3.26-6.06,0,0,0-.01,0-.02,0-.01,0-.02-.02-.03,0,0,0-.01-.01-.02,0-.01,0-.01-.01-.02,0,0,0-.01-.01-.02,0,0,0,0,0-.01-.83-1.45-2.35-2.26-3.91-2.26-.76,0-1.53.19-2.23.59-2.16,1.23-2.91,3.98-1.67,6.14,1.08,1.88,2.12,3.82,3.1,5.76.79,1.57,2.38,2.47,4.02,2.47.68,0,1.38-.16,2.03-.49Z"/>
  </g>
</svg>