<?xml version="1.0" encoding="UTF-8"?>
<svg id="Layer_1" data-name="Layer 1" xmlns="http://www.w3.org/2000/svg" viewBox="0 0 500 500">
  <defs>
    <style>
      .cls-1 {
        fill: none;
      }

      .cls-1, .cls-2, .cls-3, .cls-4, .cls-5, .cls-6 {
        stroke-width: 0px;
      }

      .cls-3 {
        fill: #196cac;
      }

      .cls-4 {
        fill: #d0e1f1;
      }

      .cls-5 {
        fill: #bccbd3;
      }

      .cls-6 {
        fill: #fff;
      }
    </style>
  </defs>
  <rect class="cls-5" x="60.94" y="119.2" width="364.58" height="264.95" rx="3" ry="3"/>
  <g>
    <rect class="cls-6" x="51.58" y="108.24" width="364.58" height="264.95" rx="3" ry="3"/>
    <path class="cls-2" d="m414.53,375.64H53.22c-2.26,0-4.09-1.83-4.09-4.09V109.87c0-2.26,1.83-4.09,4.09-4.09h361.31c2.26,0,4.09,1.83,4.09,4.09v261.67c0,2.26-1.83,4.09-4.09,4.09Zm-360.49-4.91h359.68V110.69H54.04v260.04Z"/>
  </g>
  <path class="cls-5" d="m54.97,107.92h358.19c1.66,0,3,1.34,3,3v32.06H51.97v-32.06c0-1.66,1.34-3,3-3Z"/>
  <path class="cls-2" d="m418.62,145.43H49.52v-35.87c0-2.26,1.83-4.09,4.09-4.09h360.92c2.26,0,4.09,1.83,4.09,4.09v35.87Zm-364.19-4.91h359.29v-30.15H54.43v30.15Z"/>
  <g>
    <rect class="cls-5" x="123.25" y="190.89" width="217.35" height="149.57" rx="3" ry="3"/>
    <path class="cls-2" d="m338.96,342.92H124.89c-2.26,0-4.09-1.83-4.09-4.09v-146.3c0-2.26,1.83-4.09,4.09-4.09h214.08c2.26,0,4.09,1.83,4.09,4.09v146.3c0,2.26-1.83,4.09-4.09,4.09Zm-213.26-4.91h212.44v-144.66H125.71v144.66Z"/>
  </g>
  <path class="cls-3" d="m164.68,297.71l34.9-45.4c.65-.85,1.94-.85,2.59,0l36.92,48.03h-73.12c-1.36,0-2.12-1.56-1.3-2.63Z"/>
  <path class="cls-2" d="m244.07,302.8h-78.1c-1.57,0-2.98-.87-3.67-2.28-.69-1.41-.53-3.06.43-4.3l34.9-45.4c.78-1.02,1.96-1.6,3.24-1.6s2.46.58,3.24,1.6l39.96,51.98Zm-77.45-3.59h0s0,0,0,0Zm1.01-1.31h66.47l-33.24-43.24-33.24,43.24Z"/>
  <path class="cls-4" d="m201.31,297.71l49.97-65.01c.65-.85,1.94-.85,2.59,0l49.97,65.01c.83,1.08.06,2.63-1.3,2.63h-99.94c-1.36,0-2.12-1.56-1.3-2.63Z"/>
  <path class="cls-2" d="m302.55,302.8h-99.94c-1.57,0-2.98-.87-3.67-2.28s-.53-3.06.43-4.3l49.97-65.01c.78-1.02,1.96-1.6,3.24-1.6s2.46.58,3.24,1.6l49.97,65.01c.96,1.24,1.12,2.89.43,4.3s-2.1,2.28-3.67,2.28Zm-99.29-3.59h0s0,0,0,0Zm1.01-1.31h96.62l-48.31-62.85-48.31,62.85Z"/>
  <path class="cls-2" d="m388.07,247.94c-3.68-12.52-12.63-20.64-26.59-24.13-10.7-2.68-20.48-1.5-20.57-1.49l-.61-4.87c.43-.05,10.66-1.3,22.23,1.56,15.63,3.86,26.09,13.39,30.25,27.54l-4.71,1.38Z"/>
  <path class="cls-4" d="m482.52,267.83l-67.61-40.69c-.25-.15-.56-.2-.88-.15l-29.98,5.67c-.97.18-1.64,1.3-1.35,2.24l9.03,29.15c.09.3.28.55.54.71l67.61,40.69c.65.39,1.56.08,2.02-.69l20.96-34.82c.47-.77.32-1.72-.33-2.11Z"/>
  <path class="cls-2" d="m460.48,308.07c-.65,0-1.29-.17-1.88-.52l-67.61-40.7c-.77-.46-1.34-1.2-1.62-2.08l-9.03-29.15c-.35-1.11-.18-2.35.45-3.4.63-1.04,1.65-1.77,2.79-1.98l29.98-5.67c.9-.17,1.83,0,2.6.45l67.61,40.69c.93.56,1.57,1.52,1.74,2.63.15.97-.05,1.98-.57,2.85l-20.96,34.82c-.79,1.31-2.15,2.05-3.51,2.05Zm-66.55-45.17l66.28,39.89,20.11-33.42-66.28-39.89-28.78,5.44,8.66,27.98Z"/>
  <g>
    <path class="cls-2" d="m417.05,265.05l-6.57-3.95-3.35,3.5-5.91-3.56,21.81-20.3,6.31,3.8-7.73,28.77-6.06-3.65,1.5-4.61Zm1.99-6.03l3.24-10.06-7.35,7.59,4.11,2.48Z"/>
    <path class="cls-2" d="m439.18,250.47l5.79,3.48-11.13,18.49,9.03,5.44-3.64,6.04-14.82-8.92,14.77-24.53Z"/>
    <path class="cls-2" d="m453.36,259l17.59,10.59-3.65,6.06-5.9-3.55-11.12,18.48-5.79-3.48,11.12-18.48-5.9-3.55,3.65-6.06Z"/>
  </g>
  <rect class="cls-1" x=".31" y="-.48" width="499.39" height="499.39"/>
</svg>