<?xml version="1.0" encoding="UTF-8"?>
<svg id="Layer_1" data-name="Layer 1" xmlns="http://www.w3.org/2000/svg" viewBox="0 0 500 500">
  <defs>
    <style>
      .cls-1 {
        fill: #d0e1f1;
        stroke-width: 5px;
      }

      .cls-1, .cls-2 {
        stroke: #000;
        stroke-miterlimit: 10;
      }

      .cls-3 {
        fill: none;
      }

      .cls-3, .cls-4, .cls-5, .cls-6, .cls-7, .cls-8 {
        stroke-width: 0px;
      }

      .cls-2 {
        stroke-linecap: round;
        stroke-width: 11px;
      }

      .cls-9 {
        font-family: NotoSansMono-Medium, 'Noto Sans Mono';
        font-size: 96.38px;
        font-variation-settings: 'wght' 500, 'wdth' 100;
        font-weight: 500;
      }

      .cls-5 {
        fill: #196cac;
      }

      .cls-6 {
        fill: #231f20;
      }

      .cls-7 {
        fill: #bccbd3;
      }

      .cls-8 {
        fill: #fff;
      }
    </style>
  </defs>
  <rect class="cls-3" width="498.45" height="498.45"/>
  <rect class="cls-7" x="83.4" y="123.3" width="355.07" height="268.84" rx="3" ry="3"/>
  <g>
    <path class="cls-8" d="m73.49,381.86c-.73,0-1.32-.59-1.32-1.32v-234.76h357.14v234.76c0,.73-.59,1.32-1.32,1.32H73.49Z"/>
    <path class="cls-4" d="m427.51,147.59v232.48H73.97v-232.48h353.54m3.6-3.6H70.37v236.56c0,1.72,1.4,3.12,3.12,3.12h354.51c1.72,0,3.12-1.4,3.12-3.12v-236.56h0Z"/>
  </g>
  <g>
    <path class="cls-7" d="m71.87,150.71v-33.26c0-.89.73-1.62,1.62-1.62h354.51c.89,0,1.62.72,1.62,1.62v33.26H71.87Z"/>
    <path class="cls-6" d="m428,117.34c.06,0,.12.05.12.12v31.76H73.37v-31.76c0-.06.05-.12.12-.12h354.51m0-3H73.49c-1.72,0-3.12,1.4-3.12,3.12v34.76h360.74v-34.76c0-1.72-1.4-3.12-3.12-3.12h0Z"/>
  </g>
  <g>
    <path class="cls-7" d="m156.96,318.45c-10.01,0-17.92-2.53-23.72-7.6-5.81-5.06-8.71-12.42-8.71-22.06,0-7.29,1.7-13.31,5.1-18.07,3.4-4.76,8.4-8.34,15.01-10.75,6.61-2.41,14.61-3.74,24-3.99l21.69-.56v-4.26c0-7.66-2.07-12.97-6.21-15.94-4.14-2.97-9.86-4.45-17.14-4.45-5.07,0-10.01.62-14.83,1.85-4.82,1.24-9.58,3.03-14.27,5.38l-6.49-14.46c4.94-2.47,10.41-4.54,16.4-6.21,5.99-1.67,12.7-2.5,20.11-2.5,12.97,0,22.98,2.84,30.03,8.53,7.04,5.68,10.56,14.52,10.56,26.5v66.72h-15.38l-2.59-13.53h-.74c-2.84,3.58-5.9,6.49-9.17,8.71-3.28,2.22-6.89,3.89-10.84,5-3.96,1.11-8.22,1.67-12.79,1.67Zm4.82-15.75c5.19,0,9.94-.96,14.27-2.87,4.32-1.92,7.78-4.76,10.38-8.53,2.6-3.77,3.89-8.43,3.89-13.99v-8.71l-17.05.37c-7.04.25-12.76,1.11-17.14,2.59-4.39,1.48-7.6,3.58-9.64,6.3-2.04,2.72-3.06,6-3.06,9.82,0,5.31,1.7,9.15,5.1,11.49,3.4,2.35,7.81,3.52,13.25,3.52Z"/>
    <path class="cls-7" d="m267.61,318.45c-6.8,0-12.7-1.36-17.7-4.08-5-2.72-9.05-6.05-12.14-10.01h-1.3l-2.22,12.23h-15.38v-140.86h19.09v33.73c0,2.97-.06,6.15-.19,9.55-.12,3.4-.37,6.95-.74,10.66h.93c2.72-4.2,6.61-7.72,11.68-10.56,5.07-2.84,11.12-4.26,18.16-4.26,6.18,0,11.71,1.14,16.59,3.43,4.88,2.29,8.99,5.68,12.33,10.19,3.34,4.51,5.9,9.95,7.69,16.31,1.79,6.37,2.69,13.56,2.69,21.59s-.9,15.63-2.69,22.06c-1.79,6.43-4.39,11.86-7.78,16.31-3.4,4.45-7.54,7.85-12.42,10.19-4.88,2.35-10.41,3.52-16.59,3.52Zm-4.82-16.12c8.28,0,14.39-3.06,18.35-9.17,3.95-6.12,5.93-15.04,5.93-26.78s-1.98-20.42-5.93-26.41c-3.96-5.99-10.13-8.99-18.53-8.99-7.79,0-13.84,2.94-18.16,8.8-4.33,5.87-6.49,14.67-6.49,26.41s2.07,20.85,6.21,26.97c4.14,6.12,10.35,9.17,18.63,9.17Z"/>
    <path class="cls-7" d="m360.65,318.45c-10.13,0-18.75-1.79-25.86-5.38-7.11-3.58-12.51-9.14-16.22-16.68-3.71-7.54-5.56-17.17-5.56-28.91,0-12.35,2.01-22.43,6.02-30.21,4.01-7.79,9.73-13.47,17.14-17.05,7.41-3.58,16.06-5.38,25.95-5.38,5.56,0,10.87.56,15.94,1.67,5.07,1.11,9.82,2.78,14.27,5l-5.75,15.94c-4.2-2.1-8.22-3.58-12.05-4.45-3.83-.86-7.66-1.3-11.49-1.3-6.92,0-12.6,1.33-17.05,3.98-4.45,2.66-7.72,6.58-9.82,11.77-2.1,5.19-3.15,11.74-3.15,19.65s1.11,14.77,3.34,19.83c2.22,5.07,5.56,8.77,10.01,11.12,4.45,2.35,9.95,3.52,16.5,3.52,4.94,0,9.79-.58,14.55-1.76,4.76-1.17,9.17-2.75,13.25-4.73v17.42c-4.2,1.98-8.93,3.46-14.18,4.45-5.25.99-10.54,1.48-15.85,1.48Z"/>
  </g>
  <g>
    <path class="cls-5" d="m116.41,352.28c-6.43,0-11.51-1.63-15.24-4.88-3.73-3.25-5.6-7.98-5.6-14.17,0-4.68,1.09-8.55,3.27-11.61,2.18-3.05,5.4-5.36,9.64-6.91,4.25-1.55,9.39-2.4,15.42-2.56l13.93-.36v-2.74c0-4.92-1.33-8.33-3.99-10.24-2.66-1.9-6.33-2.86-11.01-2.86-3.25,0-6.43.4-9.52,1.19-3.1.79-6.15,1.95-9.17,3.45l-4.17-9.29c3.17-1.59,6.69-2.92,10.54-3.99,3.85-1.07,8.16-1.61,12.92-1.61,8.33,0,14.76,1.83,19.29,5.48,4.52,3.65,6.79,9.33,6.79,17.03v42.86h-9.88l-1.67-8.69h-.48c-1.83,2.3-3.79,4.17-5.89,5.6-2.1,1.43-4.43,2.5-6.96,3.21-2.54.71-5.28,1.07-8.21,1.07Zm3.1-10.12c3.33,0,6.39-.61,9.17-1.85,2.78-1.23,5-3.05,6.67-5.48,1.67-2.42,2.5-5.42,2.5-8.99v-5.6l-10.95.24c-4.52.16-8.2.71-11.01,1.67-2.82.95-4.88,2.3-6.19,4.05-1.31,1.75-1.96,3.85-1.96,6.31,0,3.41,1.09,5.88,3.27,7.38,2.18,1.51,5.02,2.26,8.51,2.26Z"/>
    <path class="cls-5" d="m199.4,352.28c-4.37,0-8.16-.87-11.37-2.62-3.21-1.75-5.82-3.89-7.8-6.43h-.83l-1.43,7.86h-9.88v-90.49h12.26v21.67c0,1.9-.04,3.95-.12,6.13-.08,2.18-.24,4.46-.48,6.85h.6c1.75-2.7,4.25-4.96,7.5-6.79,3.25-1.83,7.14-2.74,11.67-2.74,3.97,0,7.52.74,10.66,2.2,3.13,1.47,5.77,3.65,7.92,6.55,2.14,2.9,3.79,6.39,4.94,10.48,1.15,4.09,1.73,8.71,1.73,13.87s-.58,10.04-1.73,14.17c-1.15,4.13-2.82,7.62-5,10.48-2.18,2.86-4.84,5.04-7.98,6.55-3.14,1.51-6.69,2.26-10.66,2.26Zm-3.1-10.36c5.32,0,9.25-1.96,11.79-5.89,2.54-3.93,3.81-9.66,3.81-17.2s-1.27-13.12-3.81-16.97c-2.54-3.85-6.51-5.77-11.91-5.77-5,0-8.89,1.89-11.67,5.66-2.78,3.77-4.17,9.43-4.17,16.97s1.33,13.39,3.99,17.32c2.66,3.93,6.65,5.89,11.97,5.89Z"/>
    <path class="cls-5" d="m271.07,352.28c-6.51,0-12.05-1.15-16.61-3.45-4.57-2.3-8.04-5.87-10.42-10.72-2.38-4.84-3.57-11.03-3.57-18.57,0-7.94,1.29-14.41,3.87-19.41,2.58-5,6.25-8.65,11.01-10.95,4.76-2.3,10.32-3.45,16.67-3.45,3.57,0,6.98.36,10.24,1.07,3.25.71,6.31,1.79,9.17,3.21l-3.69,10.24c-2.7-1.35-5.28-2.3-7.74-2.86-2.46-.55-4.92-.83-7.38-.83-4.45,0-8.1.85-10.95,2.56-2.86,1.71-4.96,4.23-6.31,7.56-1.35,3.33-2.02,7.54-2.02,12.62s.71,9.49,2.14,12.74c1.43,3.26,3.57,5.64,6.43,7.14,2.86,1.51,6.39,2.26,10.6,2.26,3.17,0,6.29-.38,9.35-1.13,3.05-.75,5.89-1.77,8.51-3.04v11.19c-2.7,1.27-5.74,2.22-9.11,2.86-3.38.63-6.77.95-10.18.95Z"/>
  </g>
  <g>
    <line class="cls-2" x1="354.62" y1="134.21" x2="442.96" y2="222.55"/>
    <circle class="cls-1" cx="354.62" cy="134.21" r="52.34"/>
    <text class="cls-9" transform="translate(325.71 168.29)"><tspan x="0" y="0">+</tspan></text>
  </g>
</svg>